<svg width="419" height="69" xmlns="http://www.w3.org/2000/svg" fill="none">
  <g>
    <title>Layer 1</title>
    <path
      d="m19.864,26.508c0.208,-1.9413 1.5773,-2.912 4.108,-2.912c1.352,0 2.3573,0.104 3.016,0.312c0.6587,0.208 1.1093,0.572 1.352,1.092c0.2773,0.52 0.4333,0.988 0.468,1.404c0.0693,0.3813 0.104,0.9707 0.104,1.768l0,18.2c0,0.7973 -0.0347,1.404 -0.104,1.82c-0.0347,0.3813 -0.1733,0.832 -0.416,1.352c-0.4853,0.9013 -1.6813,1.352 -3.588,1.352c-1.872,0 -3.1373,-0.2253 -3.796,-0.676c-0.624,-0.4853 -0.988,-1.1787 -1.092,-2.08c-1.2827,1.8373 -3.432,2.756 -6.448,2.756c-2.9813,0 -5.75467,-1.3693 -8.32,-4.108c-2.56533,-2.7387 -3.848,-5.9107 -3.848,-9.516c0,-3.64 1.28267,-6.812 3.848,-9.516c2.6,-2.7387 5.4427,-4.108 8.528,-4.108c1.1787,0 2.2533,0.208 3.224,0.624c0.9707,0.416 1.6467,0.8147 2.028,1.196c0.3813,0.3467 0.6933,0.6933 0.936,1.04zm-9.464,10.816c0,1.144 0.4507,2.184 1.352,3.12c0.9013,0.9013 1.9933,1.352 3.276,1.352c1.2827,0 2.34,-0.468 3.172,-1.404c0.8667,-0.936 1.3,-1.9587 1.3,-3.068c0,-1.144 -0.416,-2.2013 -1.248,-3.172c-0.7973,-0.9707 -1.8893,-1.456 -3.276,-1.456c-1.352,0 -2.4613,0.4853 -3.328,1.456c-0.832,0.9707 -1.248,2.028 -1.248,3.172zm40.4926,-13.728c3.4666,0 6.344,1.3347 8.632,4.004c2.3226,2.6347 3.484,5.8587 3.484,9.672l0,9.152c0,0.7973 -0.0347,1.404 -0.104,1.82c-0.0347,0.3813 -0.1734,0.8147 -0.416,1.3c-0.4854,0.936 -1.8374,1.404 -4.056,1.404c-2.4614,0 -3.8827,-0.6413 -4.264,-1.924c-0.208,-0.5893 -0.312,-1.4733 -0.312,-2.652l0,-9.152c0,-1.4213 -0.416,-2.5307 -1.248,-3.328c-0.7974,-0.7973 -1.8894,-1.196 -3.276,-1.196c-1.352,0 -2.4614,0.416 -3.328,1.248c-0.832,0.832 -1.248,1.924 -1.248,3.276l0,9.204c0,0.7973 -0.0347,1.404 -0.104,1.82c-0.0347,0.3813 -0.1907,0.8147 -0.468,1.3c-0.4507,0.936 -1.7854,1.404 -4.004,1.404c-2.184,0 -3.5187,-0.468 -4.004,-1.404c-0.2427,-0.52 -0.3987,-0.9707 -0.468,-1.352c-0.0347,-0.416 -0.052,-1.0227 -0.052,-1.82l0,-18.408c0,-0.7627 0.0173,-1.3347 0.052,-1.716c0.0693,-0.416 0.2426,-0.8667 0.52,-1.352c0.4853,-0.8667 1.82,-1.3 4.004,-1.3c2.1146,0 3.4146,0.3987 3.9,1.196c0.3466,0.5893 0.52,1.3 0.52,2.132c0.1386,-0.2427 0.4506,-0.5893 0.936,-1.04c0.4853,-0.4507 0.9533,-0.8147 1.404,-1.092c1.1786,-0.7973 2.4786,-1.196 3.9,-1.196zm18.8991,4.576c0,-0.7973 0.0173,-1.3867 0.052,-1.768c0.0693,-0.416 0.2253,-0.884 0.468,-1.404c0.4853,-0.9013 1.8373,-1.352 4.056,-1.352c1.664,0 2.8427,0.2947 3.536,0.884c0.5893,0.4853 0.9013,1.2307 0.936,2.236c0.0347,0.3467 0.052,0.8493 0.052,1.508l0,18.2c0,0.7973 -0.0347,1.404 -0.104,1.82c-0.0347,0.3813 -0.1907,0.832 -0.468,1.352c-0.4507,0.9013 -1.7853,1.352 -4.004,1.352c-2.184,0 -3.5187,-0.468 -4.004,-1.404c-0.2427,-0.52 -0.3987,-0.9707 -0.468,-1.352c-0.0347,-0.3813 -0.052,-0.988 -0.052,-1.82l0,-18.252zm8.528,-9.62c-0.2427,0.4853 -0.6933,0.832 -1.352,1.04c-0.6587,0.208 -1.5427,0.312 -2.652,0.312c-1.0747,0 -1.9413,-0.104 -2.6,-0.312c-0.6587,-0.208 -1.1267,-0.572 -1.404,-1.092c-0.2427,-0.52 -0.3987,-0.9707 -0.468,-1.352c-0.0347,-0.416 -0.052,-1.0227 -0.052,-1.82c0,-0.7973 0.0173,-1.3867 0.052,-1.768c0.0693,-0.416 0.2253,-0.8667 0.468,-1.352c0.4853,-0.936 1.8373,-1.404 4.056,-1.404c2.184,0 3.5013,0.468 3.952,1.404c0.2773,0.52 0.4333,0.988 0.468,1.404c0.0693,0.3813 0.104,0.9707 0.104,1.768c0,0.7973 -0.0347,1.404 -0.104,1.82c-0.0347,0.3813 -0.1907,0.832 -0.468,1.352zm16.2699,8.684c1.6294,-2.4613 3.588,-3.692 5.8764,-3.692c3.536,0 6.17,1.508 7.904,4.524c0.381,-0.52 0.832,-1.0573 1.352,-1.612c0.554,-0.5893 1.421,-1.2133 2.6,-1.872c1.178,-0.6933 2.392,-1.04 3.64,-1.04c2.773,0 5.096,1.0747 6.968,3.224c1.872,2.1147 2.808,5.6333 2.808,10.556l0,9.1c0,0.7973 -0.035,1.404 -0.104,1.82c-0.035,0.3813 -0.191,0.832 -0.468,1.352c-0.451,0.936 -1.786,1.404 -4.004,1.404c-2.184,0 -3.519,-0.4853 -4.004,-1.456c-0.243,-0.52 -0.399,-0.9707 -0.468,-1.352c-0.035,-0.416 -0.052,-1.0227 -0.052,-1.82l0,-9.1c0,-3.016 -1.075,-4.524 -3.224,-4.524c-1.214,0 -2.046,0.3987 -2.496,1.196c-0.416,0.7973 -0.624,1.924 -0.624,3.38l0,9.1c0,0.832 -0.035,1.4387 -0.104,1.82c-0.035,0.3813 -0.191,0.832 -0.468,1.352c-0.486,0.936 -1.838,1.404 -4.056,1.404c-2.184,0 -3.519,-0.4853 -4.004,-1.456c-0.243,-0.52 -0.399,-0.9707 -0.468,-1.352c-0.035,-0.416 -0.052,-1.0227 -0.052,-1.82l0,-9.1c0,-3.016 -1.075,-4.524 -3.2244,-4.524c-2.08,0 -3.12,1.508 -3.12,4.524l0,9.204c0,0.7973 -0.0346,1.404 -0.104,1.82c-0.0346,0.3813 -0.1906,0.832 -0.468,1.352c-0.52,0.9013 -1.872,1.352 -4.056,1.352c-2.184,0 -3.5186,-0.468 -4.004,-1.404c-0.2426,-0.52 -0.3986,-0.9707 -0.468,-1.352c-0.0346,-0.3813 -0.052,-0.988 -0.052,-1.82l0,-18.304c0,-0.7973 0.0174,-1.3867 0.052,-1.768c0.0694,-0.416 0.2427,-0.8667 0.52,-1.352c0.52,-0.936 1.7507,-1.404 3.692,-1.404c1.9414,0 3.2067,0.312 3.796,0.936c0.5894,0.624 0.884,1.5253 0.884,2.704zm46.8304,0c1.629,-2.4613 3.588,-3.692 5.876,-3.692c3.536,0 6.171,1.508 7.904,4.524c0.381,-0.52 0.832,-1.0573 1.352,-1.612c0.555,-0.5893 1.421,-1.2133 2.6,-1.872c1.179,-0.6933 2.392,-1.04 3.64,-1.04c2.773,0 5.096,1.0747 6.968,3.224c1.872,2.1147 2.808,5.6333 2.808,10.556l0,9.1c0,0.7973 -0.035,1.404 -0.104,1.82c-0.035,0.3813 -0.191,0.832 -0.468,1.352c-0.451,0.936 -1.785,1.404 -4.004,1.404c-2.184,0 -3.519,-0.4853 -4.004,-1.456c-0.243,-0.52 -0.399,-0.9707 -0.468,-1.352c-0.035,-0.416 -0.052,-1.0227 -0.052,-1.82l0,-9.1c0,-3.016 -1.075,-4.524 -3.224,-4.524c-1.213,0 -2.045,0.3987 -2.496,1.196c-0.416,0.7973 -0.624,1.924 -0.624,3.38l0,9.1c0,0.832 -0.035,1.4387 -0.104,1.82c-0.035,0.3813 -0.191,0.832 -0.468,1.352c-0.485,0.936 -1.837,1.404 -4.056,1.404c-2.184,0 -3.519,-0.4853 -4.004,-1.456c-0.243,-0.52 -0.399,-0.9707 -0.468,-1.352c-0.035,-0.416 -0.052,-1.0227 -0.052,-1.82l0,-9.1c0,-3.016 -1.075,-4.524 -3.224,-4.524c-2.08,0 -3.12,1.508 -3.12,4.524l0,9.204c0,0.7973 -0.035,1.404 -0.104,1.82c-0.035,0.3813 -0.191,0.832 -0.468,1.352c-0.52,0.9013 -1.872,1.352 -4.056,1.352c-2.184,0 -3.519,-0.468 -4.004,-1.404c-0.243,-0.52 -0.399,-0.9707 -0.468,-1.352c-0.035,-0.3813 -0.052,-0.988 -0.052,-1.82l0,-18.304c0,-0.7973 0.017,-1.3867 0.052,-1.768c0.069,-0.416 0.243,-0.8667 0.52,-1.352c0.52,-0.936 1.751,-1.404 3.692,-1.404c1.941,0 3.207,0.312 3.796,0.936c0.589,0.624 0.884,1.5253 0.884,2.704zm64.303,6.812c0,2.1147 -0.538,3.692 -1.612,4.732c-1.04,1.0053 -2.202,1.508 -3.484,1.508l-12.324,0c0,0.9707 0.572,1.7853 1.716,2.444c1.144,0.6587 2.288,0.988 3.432,0.988c2.01,0 3.588,-0.208 4.732,-0.624l0.572,-0.208c0.832,-0.3813 1.525,-0.572 2.08,-0.572c-21.216,1.716 -22.308,-1.4213 -22.308,-4.888c0,-4.368 1.404,-7.852 4.212,-10.452c2.842,-2.6347 6.378,-3.952 10.608,-3.952c4.818,0 8.354,1.6987 10.608,5.096c1.178,1.8027 1.768,3.7787 1.768,5.928zm-10.972,1.508c1.317,0 1.976,-0.5547 1.976,-1.664c0,-0.7973 -0.312,-1.4387 -0.936,-1.924c-0.59,-0.4853 -1.456,-0.728 -2.6,-0.728c-1.11,0 -2.219,0.468 -3.328,1.404c-1.11,0.9013 -1.664,1.872 -1.664,2.912l6.552,0zm32.2,-11.96c3.467,0 6.344,1.3347 8.632,4.004c2.323,2.6347 3.484,5.8587 3.484,9.672l0,9.152c0,0.7973 -0.035,1.404 -0.104,1.82c-0.035,0.3813 -0.173,0.8147 -0.416,1.3c-0.485,0.936 -1.837,1.404 -4.056,1.404c-2.461,0 -3.883,-0.6413 -4.264,-1.924c-0.208,-0.5893 -0.312,-1.4733 -0.312,-2.652l0,-9.152c0,-1.4213 -0.416,-2.5307 -1.248,-3.328c-0.797,-0.7973 -1.889,-1.196 -3.276,-1.196c-1.352,0 -2.461,0.416 -3.328,1.248c-0.832,0.832 -1.248,1.924 -1.248,3.276l0,9.204c0,0.7973 -0.035,1.404 -0.104,1.82c-0.035,0.3813 -0.191,0.8147 -0.468,1.3c-0.451,0.936 -1.785,1.404 -4.004,1.404c-2.184,0 -3.519,-0.468 -4.004,-1.404c-0.243,-0.52 -0.399,-0.9707 -0.468,-1.352c-0.035,-0.416 -0.052,-1.0227 -0.052,-1.82l0,-18.408c0,-0.7627 0.017,-1.3347 0.052,-1.716c0.069,-0.416 0.243,-0.8667 0.52,-1.352c0.485,-0.8667 1.82,-1.3 4.004,-1.3c2.115,0 3.415,0.3987 3.9,1.196c0.347,0.5893 0.52,1.3 0.52,2.132c0.139,-0.2427 0.451,-0.5893 0.936,-1.04c0.485,-0.4507 0.953,-0.8147 1.404,-1.092c1.179,-0.7973 2.479,-1.196 3.9,-1.196zm37.255,-11.388c0.278,-0.52 0.746,-0.884 1.404,-1.092c0.659,-0.208 1.526,-0.312 2.6,-0.312c1.11,0 1.994,0.104 2.652,0.312c0.659,0.208 1.11,0.572 1.352,1.092c0.278,0.52 0.434,0.988 0.468,1.404c0.07,0.3813 0.104,0.9707 0.104,1.768l0,31.044c0,0.7973 -0.034,1.404 -0.104,1.82c-0.034,0.3813 -0.19,0.8147 -0.468,1.3c-0.52,0.936 -1.993,1.404 -4.42,1.404c-2.392,0 -3.726,-0.8493 -4.004,-2.548c-1.456,1.664 -3.484,2.496 -6.084,2.496c-3.12,0 -5.962,-1.352 -8.528,-4.056c-2.565,-2.7387 -3.848,-5.9107 -3.848,-9.516c0,-3.64 1.283,-6.8293 3.848,-9.568c2.6,-2.7387 5.443,-4.108 8.528,-4.108c2.566,0 4.559,0.8667 5.98,2.6l0,-10.92c0,-0.7973 0.018,-1.3867 0.052,-1.768c0.07,-0.416 0.226,-0.8667 0.468,-1.352zm-8.424,28.236c0.902,0.936 1.994,1.404 3.276,1.404c1.283,0 2.34,-0.468 3.172,-1.404c0.867,-0.936 1.3,-1.9587 1.3,-3.068c0,-1.144 -0.416,-2.2013 -1.248,-3.172c-0.797,-0.9707 -1.889,-1.456 -3.276,-1.456c-1.386,0 -2.496,0.4853 -3.328,1.456c-0.832,0.936 -1.248,1.976 -1.248,3.12c0,1.144 0.451,2.184 1.352,3.12zm41.53,-13.936c0.208,-1.9413 1.578,-2.912 4.108,-2.912c1.352,0 2.358,0.104 3.016,0.312c0.659,0.208 1.11,0.572 1.352,1.092c0.278,0.52 0.434,0.988 0.468,1.404c0.07,0.3813 0.104,0.9707 0.104,1.768l0,18.2c0,0.7973 -0.034,1.404 -0.104,1.82c-0.034,0.3813 -0.173,0.832 -0.416,1.352c-0.485,0.9013 -1.681,1.352 -3.588,1.352c-1.872,0 -3.137,-0.2253 -3.796,-0.676c-0.624,-0.4853 -0.988,-1.1787 -1.092,-2.08c-1.282,1.8373 -3.432,2.756 -6.448,2.756c-2.981,0 -5.754,-1.3693 -8.32,-4.108c-2.565,-2.7387 -3.848,-5.9107 -3.848,-9.516c0,-3.64 1.283,-6.812 3.848,-9.516c2.6,-2.7387 5.443,-4.108 8.528,-4.108c1.179,0 2.254,0.208 3.224,0.624c0.971,0.416 1.647,0.8147 2.028,1.196c0.382,0.3467 0.694,0.6933 0.936,1.04zm-9.464,10.816c0,1.144 0.451,2.184 1.352,3.12c0.902,0.9013 1.994,1.352 3.276,1.352c1.283,0 2.34,-0.468 3.172,-1.404c0.867,-0.936 1.3,-1.9587 1.3,-3.068c0,-1.144 -0.416,-2.2013 -1.248,-3.172c-0.797,-0.9707 -1.889,-1.456 -3.276,-1.456c-1.352,0 -2.461,0.4853 -3.328,1.456c-0.832,0.9707 -1.248,2.028 -1.248,3.172zm41.169,-4.524l-3.38,-0.208l0,7.176c0,0.936 0.139,1.612 0.416,2.028c0.312,0.416 0.867,0.624 1.664,0.624c0.832,0 1.456,0.0347 1.872,0.104c0.451,0.0347 0.919,0.1907 1.404,0.468c0.797,0.4507 1.196,1.612 1.196,3.484c0,2.184 -0.485,3.5187 -1.456,4.004c-0.52,0.2427 -0.988,0.3987 -1.404,0.468c-0.381,0.0347 -0.953,0.052 -1.716,0.052c-3.605,0 -6.344,-0.8147 -8.216,-2.444c-1.872,-1.6293 -2.808,-4.3853 -2.808,-8.268l0,-7.696c-0.659,0.104 -1.369,0.156 -2.132,0.156c-0.763,0 -1.404,-0.2947 -1.924,-0.884c-0.485,-0.5893 -0.728,-1.5947 -0.728,-3.016c0,-1.4213 0.087,-2.444 0.26,-3.068c0.173,-0.6587 0.416,-1.1267 0.728,-1.404c0.555,-0.4507 1.248,-0.676 2.08,-0.676l1.716,0.208l0,-5.356c0,-0.7973 0.017,-1.3867 0.052,-1.768c0.069,-0.3813 0.243,-0.7973 0.52,-1.248c0.451,-0.8667 1.785,-1.3 4.004,-1.3c2.357,0 3.761,0.6413 4.212,1.924c0.173,0.5547 0.26,1.4387 0.26,2.652l0,5.096c1.525,-0.1387 2.669,-0.208 3.432,-0.208c0.797,0 1.387,0.0347 1.768,0.104c0.416,0.0347 0.884,0.1907 1.404,0.468c0.901,0.4507 1.352,1.7853 1.352,4.004c0,2.184 -0.468,3.5187 -1.404,4.004c-0.52,0.2427 -0.988,0.3987 -1.404,0.468c-0.381,0.0347 -0.971,0.052 -1.768,0.052zm10.047,-4.628c0,-0.7973 0.018,-1.3867 0.052,-1.768c0.07,-0.416 0.226,-0.884 0.468,-1.404c0.486,-0.9013 1.838,-1.352 4.056,-1.352c1.664,0 2.843,0.2947 3.536,0.884c0.59,0.4853 0.902,1.2307 0.936,2.236c0.035,0.3467 0.052,0.8493 0.052,1.508l0,18.2c0,0.7973 -0.034,1.404 -0.104,1.82c-0.034,0.3813 -0.19,0.832 -0.468,1.352c-0.45,0.9013 -1.785,1.352 -4.004,1.352c-2.184,0 -3.518,-0.468 -4.004,-1.404c-0.242,-0.52 -0.398,-0.9707 -0.468,-1.352c-0.034,-0.3813 -0.052,-0.988 -0.052,-1.82l0,-18.252zm8.528,-9.62c-0.242,0.4853 -0.693,0.832 -1.352,1.04c-0.658,0.208 -1.542,0.312 -2.652,0.312c-1.074,0 -1.941,-0.104 -2.6,-0.312c-0.658,-0.208 -1.126,-0.572 -1.404,-1.092c-0.242,-0.52 -0.398,-0.9707 -0.468,-1.352c-0.034,-0.416 -0.052,-1.0227 -0.052,-1.82c0,-0.7973 0.018,-1.3867 0.052,-1.768c0.07,-0.416 0.226,-0.8667 0.468,-1.352c0.486,-0.936 1.838,-1.404 4.056,-1.404c2.184,0 3.502,0.468 3.952,1.404c0.278,0.52 0.434,0.988 0.468,1.404c0.07,0.3813 0.104,0.9707 0.104,1.768c0,0.7973 -0.034,1.404 -0.104,1.82c-0.034,0.3813 -0.19,0.832 -0.468,1.352zm6.546,18.772c0,-4.16 1.456,-7.592 4.368,-10.296c2.912,-2.704 6.24,-4.056 9.984,-4.056c3.744,0 7.055,1.352 9.932,4.056c2.878,2.6693 4.316,6.084 4.316,10.244c0,2.8773 -0.745,5.4427 -2.236,7.696c-1.49,2.2187 -3.31,3.8653 -5.46,4.94c-2.114,1.04 -4.316,1.56 -6.604,1.56c-2.288,0 -4.506,-0.5547 -6.656,-1.664c-2.149,-1.144 -3.969,-2.808 -5.46,-4.992c-1.456,-2.2187 -2.184,-4.7147 -2.184,-7.488zm10.868,3.744c1.11,0.832 2.236,1.248 3.38,1.248c1.144,0 2.288,-0.4333 3.432,-1.3c1.144,-0.8667 1.716,-2.1493 1.716,-3.848c0,-1.6987 -0.537,-2.964 -1.612,-3.796c-1.074,-0.832 -2.236,-1.248 -3.484,-1.248c-1.248,0 -2.409,0.4333 -3.484,1.3c-1.074,0.8667 -1.612,2.1493 -1.612,3.848c0,1.664 0.555,2.9293 1.664,3.796zm38.928,-17.472c3.467,0 6.344,1.3347 8.632,4.004c2.323,2.6347 3.484,5.8587 3.484,9.672l0,9.152c0,0.7973 -0.035,1.404 -0.104,1.82c-0.035,0.3813 -0.173,0.8147 -0.416,1.3c-0.485,0.936 -1.837,1.404 -4.056,1.404c-2.461,0 -3.883,-0.6413 -4.264,-1.924c-0.208,-0.5893 -0.312,-1.4733 -0.312,-2.652l0,-9.152c0,-1.4213 -0.416,-2.5307 -1.248,-3.328c-0.797,-0.7973 -1.889,-1.196 -3.276,-1.196c-1.352,0 -2.461,0.416 -3.328,1.248c-0.832,0.832 -1.248,1.924 -1.248,3.276l0,9.204c0,0.7973 -0.035,1.404 -0.104,1.82c-0.035,0.3813 -0.191,0.8147 -0.468,1.3c-0.451,0.936 -1.785,1.404 -4.004,1.404c-2.184,0 -3.519,-0.468 -4.004,-1.404c-0.243,-0.52 -0.399,-0.9707 -0.468,-1.352c-0.035,-0.416 -0.052,-1.0227 -0.052,-1.82l0,-18.408c0,-0.7627 0.017,-1.3347 0.052,-1.716c0.069,-0.416 0.243,-0.8667 0.52,-1.352c0.485,-0.8667 1.82,-1.3 4.004,-1.3c2.115,0 3.415,0.3987 3.9,1.196c0.347,0.5893 0.52,1.3 0.52,2.132c0.139,-0.2427 0.451,-0.5893 0.936,-1.04c0.485,-0.4507 0.953,-0.8147 1.404,-1.092c1.179,-0.7973 2.479,-1.196 3.9,-1.196z"
      fill="#323232" id="svg_1" />
    <path
      d="m19.97896,29.508c0.208,-1.9413 1.5773,-2.912 4.108,-2.912c1.352,0 2.3573,0.104 3.016,0.312c0.6587,0.208 1.1093,0.572 1.352,1.092c0.2773,0.52 0.4333,0.988 0.468,1.404c0.0693,0.3813 0.104,0.9707 0.104,1.768l0,18.2c0,0.7973 -0.0347,1.404 -0.104,1.82c-0.0347,0.3813 -0.1733,0.832 -0.416,1.352c-0.4853,0.9013 -1.6813,1.352 -3.588,1.352c-1.872,0 -3.1373,-0.2253 -3.796,-0.676c-0.624,-0.4853 -0.988,-1.1787 -1.092,-2.08c-1.2827,1.8373 -3.432,2.756 -6.448,2.756c-2.9813,0 -5.75467,-1.3693 -8.32,-4.108c-2.56533,-2.7387 -3.848,-5.9107 -3.848,-9.516c0,-3.64 1.28267,-6.812 3.848,-9.516c2.6,-2.7387 5.4427,-4.108 8.528,-4.108c1.1787,0 2.2533,0.208 3.224,0.624c0.9707,0.416 1.6467,0.8147 2.028,1.196c0.3813,0.3467 0.6933,0.6933 0.936,1.04zm31.0286,-2.912c3.4666,0 6.344,1.3347 8.632,4.004c2.3226,2.6347 3.484,5.8587 3.484,9.672l0,9.152c0,0.7973 -0.0347,1.404 -0.104,1.82c-0.0347,0.3813 -0.1734,0.8147 -0.416,1.3c-0.4854,0.936 -1.8374,1.404 -4.056,1.404c-2.4614,0 -3.8827,-0.6413 -4.264,-1.924c-0.208,-0.5893 -0.312,-1.4733 -0.312,-2.652l0,-9.152c0,-1.4213 -0.416,-2.5307 -1.248,-3.328c-0.7974,-0.7973 -1.8894,-1.196 -3.276,-1.196c-1.352,0 -2.4614,0.416 -3.328,1.248c-0.832,0.832 -1.248,1.924 -1.248,3.276l0,9.204c0,0.7973 -0.0347,1.404 -0.104,1.82c-0.0347,0.3813 -0.1907,0.8147 -0.468,1.3c-0.4507,0.936 -1.7854,1.404 -4.004,1.404c-2.184,0 -3.5187,-0.468 -4.004,-1.404c-0.2427,-0.52 -0.3987,-0.9707 -0.468,-1.352c-0.0347,-0.416 -0.052,-1.0227 -0.052,-1.82l0,-18.408c0,-0.7627 0.0173,-1.3347 0.052,-1.716c0.0693,-0.416 0.2426,-0.8667 0.52,-1.352c0.4853,-0.8667 1.82,-1.3 4.004,-1.3c2.1146,0 3.4146,0.3987 3.9,1.196c0.3466,0.5893 0.52,1.3 0.52,2.132c0.1386,-0.2427 0.4506,-0.5893 0.936,-1.04c0.4853,-0.4507 0.9533,-0.8147 1.404,-1.092c1.1786,-0.7973 2.4786,-1.196 3.9,-1.196zm18.8991,4.576c0,-0.7973 0.0173,-1.3867 0.052,-1.768c0.0693,-0.416 0.2253,-0.884 0.468,-1.404c0.4853,-0.9013 1.8373,-1.352 4.056,-1.352c1.664,0 2.8427,0.2947 3.536,0.884c0.5893,0.4853 0.9013,1.2307 0.936,2.236c0.0347,0.3467 0.052,0.8493 0.052,1.508l0,18.2c0,0.7973 -0.0347,1.404 -0.104,1.82c-0.0347,0.3813 -0.1907,0.832 -0.468,1.352c-0.4507,0.9013 -1.7853,1.352 -4.004,1.352c-2.184,0 -3.5187,-0.468 -4.004,-1.404c-0.2427,-0.52 -0.3987,-0.9707 -0.468,-1.352c-0.0347,-0.3813 -0.052,-0.988 -0.052,-1.82l0,-18.252zm8.528,-9.62c-0.2427,0.4853 -0.6933,0.832 -1.352,1.04c-0.6587,0.208 -1.5427,0.312 -2.652,0.312c-1.0747,0 -1.9413,-0.104 -2.6,-0.312c-0.6587,-0.208 -1.1267,-0.572 -1.404,-1.092c-0.2427,-0.52 -0.3987,-0.9707 -0.468,-1.352c-0.0347,-0.416 -0.052,-1.0227 -0.052,-1.82c0,-0.7973 0.0173,-1.3867 0.052,-1.768c0.0693,-0.416 0.2253,-0.8667 0.468,-1.352c0.4853,-0.936 1.8373,-1.404 4.056,-1.404c2.184,0 3.5013,0.468 3.952,1.404c0.2773,0.52 0.4333,0.988 0.468,1.404c0.0693,0.3813 0.104,0.9707 0.104,1.768c0,0.7973 -0.0347,1.404 -0.104,1.82c-0.0347,0.3813 -0.1907,0.832 -0.468,1.352zm16.2699,8.684c1.6294,-2.4613 3.588,-3.692 5.8764,-3.692c3.536,0 6.17,1.508 7.904,4.524c0.381,-0.52 0.832,-1.0573 1.352,-1.612c0.554,-0.5893 1.421,-1.2133 2.6,-1.872c1.178,-0.6933 2.392,-1.04 3.64,-1.04c2.773,0 5.096,1.0747 6.968,3.224c1.872,2.1147 2.808,5.6333 2.808,10.556l0,9.1c0,0.7973 -0.035,1.404 -0.104,1.82c-0.035,0.3813 -0.191,0.832 -0.468,1.352c-0.451,0.936 -1.786,1.404 -4.004,1.404c-2.184,0 -3.519,-0.4853 -4.004,-1.456c-0.243,-0.52 -0.399,-0.9707 -0.468,-1.352c-0.035,-0.416 -0.052,-1.0227 -0.052,-1.82l0,-9.1c0,-3.016 -1.075,-4.524 -3.224,-4.524c-1.214,0 -2.046,0.3987 -2.496,1.196c-0.416,0.7973 -0.624,1.924 -0.624,3.38l0,9.1c0,0.832 -0.035,1.4387 -0.104,1.82c-0.035,0.3813 -0.191,0.832 -0.468,1.352c-0.486,0.936 -1.838,1.404 -4.056,1.404c-2.184,0 -3.519,-0.4853 -4.004,-1.456c-0.243,-0.52 -0.399,-0.9707 -0.468,-1.352c-0.035,-0.416 -0.052,-1.0227 -0.052,-1.82l0,-9.1c0,-3.016 -1.075,-4.524 -3.2244,-4.524c-2.08,0 -3.12,1.508 -3.12,4.524l0,9.204c0,0.7973 -0.0346,1.404 -0.104,1.82c-0.0346,0.3813 -0.1906,0.832 -0.468,1.352c-0.52,0.9013 -1.872,1.352 -4.056,1.352c-2.184,0 -3.5186,-0.468 -4.004,-1.404c-0.2426,-0.52 -0.3986,-0.9707 -0.468,-1.352c-0.0346,-0.3813 -0.052,-0.988 -0.052,-1.82l0,-18.304c0,-0.7973 0.0174,-1.3867 0.052,-1.768c0.0694,-0.416 0.2427,-0.8667 0.52,-1.352c0.52,-0.936 1.7507,-1.404 3.692,-1.404c1.9414,0 3.2067,0.312 3.796,0.936c0.5894,0.624 0.884,1.5253 0.884,2.704zm46.8304,0c1.629,-2.4613 3.588,-3.692 5.876,-3.692c3.536,0 6.171,1.508 7.904,4.524c0.381,-0.52 0.832,-1.0573 1.352,-1.612c0.555,-0.5893 1.421,-1.2133 2.6,-1.872c1.179,-0.6933 2.392,-1.04 3.64,-1.04c2.773,0 5.096,1.0747 6.968,3.224c1.872,2.1147 2.808,5.6333 2.808,10.556l0,9.1c0,0.7973 -0.035,1.404 -0.104,1.82c-0.035,0.3813 -0.191,0.832 -0.468,1.352c-0.451,0.936 -1.785,1.404 -4.004,1.404c-2.184,0 -3.519,-0.4853 -4.004,-1.456c-0.243,-0.52 -0.399,-0.9707 -0.468,-1.352c-0.035,-0.416 -0.052,-1.0227 -0.052,-1.82l0,-9.1c0,-3.016 -1.075,-4.524 -3.224,-4.524c-1.213,0 -2.045,0.3987 -2.496,1.196c-0.416,0.7973 -0.624,1.924 -0.624,3.38l0,9.1c0,0.832 -0.035,1.4387 -0.104,1.82c-0.035,0.3813 -0.191,0.832 -0.468,1.352c-0.485,0.936 -1.837,1.404 -4.056,1.404c-2.184,0 -3.519,-0.4853 -4.004,-1.456c-0.243,-0.52 -0.399,-0.9707 -0.468,-1.352c-0.035,-0.416 -0.052,-1.0227 -0.052,-1.82l0,-9.1c0,-3.016 -1.075,-4.524 -3.224,-4.524c-2.08,0 -3.12,1.508 -3.12,4.524l0,9.204c0,0.7973 -0.035,1.404 -0.104,1.82c-0.035,0.3813 -0.191,0.832 -0.468,1.352c-0.52,0.9013 -1.872,1.352 -4.056,1.352c-2.184,0 -3.519,-0.468 -4.004,-1.404c-0.243,-0.52 -0.399,-0.9707 -0.468,-1.352c-0.035,-0.3813 -0.052,-0.988 -0.052,-1.82l0,-18.304c0,-0.7973 0.017,-1.3867 0.052,-1.768c0.069,-0.416 0.243,-0.8667 0.52,-1.352c0.52,-0.936 1.751,-1.404 3.692,-1.404c1.941,0 3.207,0.312 3.796,0.936c0.589,0.624 0.884,1.5253 0.884,2.704zm64.303,6.812c0,2.1147 -0.538,3.692 -1.612,4.732c-1.04,1.0053 -2.202,1.508 -3.484,1.508l-12.324,0c-8.684,3.62904 -9.776,0.6067 -9.776,-2.86c0,-4.368 1.404,-7.852 4.212,-10.452c2.842,-2.6347 6.378,-3.952 10.608,-3.952c4.818,0 8.354,1.6987 10.608,5.096c1.178,1.8027 1.768,3.7787 1.768,5.928zm21.228,-10.452c3.467,0 6.344,1.3347 8.632,4.004c2.323,2.6347 3.484,5.8587 3.484,9.672l0,9.152c0,0.7973 -0.035,1.404 -0.104,1.82c-0.035,0.3813 -0.173,0.8147 -0.416,1.3c-0.485,0.936 -1.837,1.404 -4.056,1.404c-2.461,0 -3.883,-0.6413 -4.264,-1.924c-0.208,-0.5893 -0.312,-1.4733 -0.312,-2.652l0,-9.152c0,-1.4213 -0.416,-2.5307 -1.248,-3.328c-0.797,-0.7973 -1.889,-1.196 -3.276,-1.196c-1.352,0 -2.461,0.416 -3.328,1.248c-0.832,0.832 -1.248,1.924 -1.248,3.276l0,9.204c0,0.7973 -0.035,1.404 -0.104,1.82c-0.035,0.3813 -0.191,0.8147 -0.468,1.3c-0.451,0.936 -1.785,1.404 -4.004,1.404c-2.184,0 -3.519,-0.468 -4.004,-1.404c-0.243,-0.52 -0.399,-0.9707 -0.468,-1.352c-0.035,-0.416 -0.052,-1.0227 -0.052,-1.82l0,-18.408c0,-0.7627 0.017,-1.3347 0.052,-1.716c0.069,-0.416 0.243,-0.8667 0.52,-1.352c0.485,-0.8667 1.82,-1.3 4.004,-1.3c2.115,0 3.415,0.3987 3.9,1.196c0.347,0.5893 0.52,1.3 0.52,2.132c0.139,-0.2427 0.451,-0.5893 0.936,-1.04c0.485,-0.4507 0.953,-0.8147 1.404,-1.092c1.179,-0.7973 2.479,-1.196 3.9,-1.196zm37.255,-11.388c0.278,-0.52 0.746,-0.884 1.404,-1.092c0.659,-0.208 1.526,-0.312 2.6,-0.312c1.11,0 1.994,0.104 2.652,0.312c0.659,0.208 1.11,0.572 1.352,1.092c0.278,0.52 0.434,0.988 0.468,1.404c0.07,0.3813 0.104,0.9707 0.104,1.768l0,31.044c0,0.7973 -0.034,1.404 -0.104,1.82c-0.034,0.3813 -0.19,0.8147 -0.468,1.3c-0.52,0.936 -1.993,1.404 -4.42,1.404c-2.392,0 -3.726,-0.8493 -4.004,-2.548c-1.456,1.664 -3.484,2.496 -6.084,2.496c-3.12,0 -5.962,-1.352 -8.528,-4.056c-2.565,-2.7387 -3.848,-5.9107 -3.848,-9.516c0,-3.64 1.283,-6.8293 3.848,-9.568c2.6,-2.7387 5.443,-4.108 8.528,-4.108c2.566,0 4.559,0.8667 5.98,2.6l0,-10.92c0,-0.7973 0.018,-1.3867 0.052,-1.768c0.07,-0.416 0.226,-0.8667 0.468,-1.352zm33.106,14.3c0.208,-1.9413 1.578,-2.912 4.108,-2.912c1.352,0 2.358,0.104 3.016,0.312c0.659,0.208 1.11,0.572 1.352,1.092c0.278,0.52 0.434,0.988 0.468,1.404c0.07,0.3813 0.104,0.9707 0.104,1.768l0,18.2c0,0.7973 -0.034,1.404 -0.104,1.82c-0.034,0.3813 -0.173,0.832 -0.416,1.352c-0.485,0.9013 -1.681,1.352 -3.588,1.352c-1.872,0 -3.137,-0.2253 -3.796,-0.676c-0.624,-0.4853 -0.988,-1.1787 -1.092,-2.08c-1.282,1.8373 -3.432,2.756 -6.448,2.756c-2.981,0 -5.754,-1.3693 -8.32,-4.108c-2.565,-2.7387 -3.848,-5.9107 -3.848,-9.516c0,-3.64 1.283,-6.812 3.848,-9.516c2.6,-2.7387 5.443,-4.108 8.528,-4.108c1.179,0 2.254,0.208 3.224,0.624c0.971,0.416 1.647,0.8147 2.028,1.196c0.382,0.3467 0.694,0.6933 0.936,1.04zm31.705,6.292l-3.38,-0.208l0,7.176c0,0.936 0.139,1.612 0.416,2.028c0.312,0.416 0.867,0.624 1.664,0.624c0.832,0 1.456,0.0347 1.872,0.104c0.451,0.0347 0.919,0.1907 1.404,0.468c0.797,0.4507 1.196,1.612 1.196,3.484c0,2.184 -0.485,3.5187 -1.456,4.004c-0.52,0.2427 -0.988,0.3987 -1.404,0.468c-0.381,0.0347 -0.953,0.052 -1.716,0.052c-3.605,0 -6.344,-0.8147 -8.216,-2.444c-1.872,-1.6293 -2.808,-4.3853 -2.808,-8.268l0,-7.696c-0.659,0.104 -1.369,0.156 -2.132,0.156c-0.763,0 -1.404,-0.2947 -1.924,-0.884c-0.485,-0.5893 -0.728,-1.5947 -0.728,-3.016c0,-1.4213 0.087,-2.444 0.26,-3.068c0.173,-0.6587 0.416,-1.1267 0.728,-1.404c0.555,-0.4507 1.248,-0.676 2.08,-0.676l1.716,0.208l0,-5.356c0,-0.7973 0.017,-1.3867 0.052,-1.768c0.069,-0.3813 0.243,-0.7973 0.52,-1.248c0.451,-0.8667 1.785,-1.3 4.004,-1.3c2.357,0 3.761,0.6413 4.212,1.924c0.173,0.5547 0.26,1.4387 0.26,2.652l0,5.096c1.525,-0.1387 2.669,-0.208 3.432,-0.208c0.797,0 1.387,0.0347 1.768,0.104c0.416,0.0347 0.884,0.1907 1.404,0.468c0.901,0.4507 1.352,1.7853 1.352,4.004c0,2.184 -0.468,3.5187 -1.404,4.004c-0.52,0.2427 -0.988,0.3987 -1.404,0.468c-0.381,0.0347 -0.971,0.052 -1.768,0.052zm10.047,-4.628c0,-0.7973 0.018,-1.3867 0.052,-1.768c0.07,-0.416 0.226,-0.884 0.468,-1.404c0.486,-0.9013 1.838,-1.352 4.056,-1.352c1.664,0 2.843,0.2947 3.536,0.884c0.59,0.4853 0.902,1.2307 0.936,2.236c0.035,0.3467 0.052,0.8493 0.052,1.508l0,18.2c0,0.7973 -0.034,1.404 -0.104,1.82c-0.034,0.3813 -0.19,0.832 -0.468,1.352c-0.45,0.9013 -1.785,1.352 -4.004,1.352c-2.184,0 -3.518,-0.468 -4.004,-1.404c-0.242,-0.52 -0.398,-0.9707 -0.468,-1.352c-0.034,-0.3813 -0.052,-0.988 -0.052,-1.82l0,-18.252zm8.528,-9.62c-0.242,0.4853 -0.693,0.832 -1.352,1.04c-0.658,0.208 -1.542,0.312 -2.652,0.312c-1.074,0 -1.941,-0.104 -2.6,-0.312c-0.658,-0.208 -1.126,-0.572 -1.404,-1.092c-0.242,-0.52 -0.398,-0.9707 -0.468,-1.352c-0.034,-0.416 -0.052,-1.0227 -0.052,-1.82c0,-0.7973 0.018,-1.3867 0.052,-1.768c0.07,-0.416 0.226,-0.8667 0.468,-1.352c0.486,-0.936 1.838,-1.404 4.056,-1.404c2.184,0 3.502,0.468 3.952,1.404c0.278,0.52 0.434,0.988 0.468,1.404c0.07,0.3813 0.104,0.9707 0.104,1.768c0,0.7973 -0.034,1.404 -0.104,1.82c-0.034,0.3813 -0.19,0.832 -0.468,1.352zm6.546,18.772c0,-4.16 1.456,-7.592 4.368,-10.296c2.912,-2.704 6.24,-4.056 9.984,-4.056c3.744,0 7.055,1.352 9.932,4.056c2.878,2.6693 4.316,6.084 4.316,10.244c0,2.8773 -0.745,5.4427 -2.236,7.696c-1.49,2.2187 -3.31,3.8653 -5.46,4.94c-2.114,1.04 -4.316,1.56 -6.604,1.56c-2.288,0 -4.506,-0.5547 -6.656,-1.664c-2.149,-1.144 -3.969,-2.808 -5.46,-4.992c-1.456,-2.2187 -2.184,-4.7147 -2.184,-7.488zm49.796,-13.728c3.467,0 6.344,1.3347 8.632,4.004c2.323,2.6347 3.484,5.8587 3.484,9.672l0,9.152c0,0.7973 -0.035,1.404 -0.104,1.82c-0.035,0.3813 -0.173,0.8147 -0.416,1.3c-0.485,0.936 -1.837,1.404 -4.056,1.404c-2.461,0 -3.883,-0.6413 -4.264,-1.924c-0.208,-0.5893 -0.312,-1.4733 -0.312,-2.652l0,-9.152c0,-1.4213 -0.416,-2.5307 -1.248,-3.328c-0.797,-0.7973 -1.889,-1.196 -3.276,-1.196c-1.352,0 -2.461,0.416 -3.328,1.248c-0.832,0.832 -1.248,1.924 -1.248,3.276l0,9.204c0,0.7973 -0.035,1.404 -0.104,1.82c-0.035,0.3813 -0.191,0.8147 -0.468,1.3c-0.451,0.936 -1.785,1.404 -4.004,1.404c-2.184,0 -3.519,-0.468 -4.004,-1.404c-0.243,-0.52 -0.399,-0.9707 -0.468,-1.352c-0.035,-0.416 -0.052,-1.0227 -0.052,-1.82l0,-18.408c0,-0.7627 0.017,-1.3347 0.052,-1.716c0.069,-0.416 0.243,-0.8667 0.52,-1.352c0.485,-0.8667 1.82,-1.3 4.004,-1.3c2.115,0 3.415,0.3987 3.9,1.196c0.347,0.5893 0.52,1.3 0.52,2.132c0.139,-0.2427 0.451,-0.5893 0.936,-1.04c0.485,-0.4507 0.953,-0.8147 1.404,-1.092c1.179,-0.7973 2.479,-1.196 3.9,-1.196z"
      fill="#1d4ed8" id="svg_2" />
    <path
      d="m19.864,32.508c0.208,-1.9413 1.5773,-2.912 4.108,-2.912c1.352,0 2.3573,0.104 3.016,0.312c0.6587,0.208 1.1093,0.572 1.352,1.092c0.2773,0.52 0.4333,0.988 0.468,1.404c0.0693,0.3813 0.104,0.9707 0.104,1.768l0,18.2c0,0.7973 -0.0347,1.404 -0.104,1.82c-0.0347,0.3813 -0.1733,0.832 -0.416,1.352c-0.4853,0.9013 -1.6813,1.352 -3.588,1.352c-1.872,0 -3.1373,-0.2253 -3.796,-0.676c-0.624,-0.4853 -0.988,-1.1787 -1.092,-2.08c-1.2827,1.8373 -3.432,2.756 -6.448,2.756c-2.9813,0 -5.75467,-1.3693 -8.32,-4.108c-2.56533,-2.7387 -3.848,-5.9107 -3.848,-9.516c0,-3.64 1.28267,-6.812 3.848,-9.516c2.6,-2.7387 5.4427,-4.108 8.528,-4.108c1.1787,0 2.2533,0.208 3.224,0.624c0.9707,0.416 1.6467,0.8147 2.028,1.196c0.3813,0.3467 0.6933,0.6933 0.936,1.04zm-9.464,10.816c0,1.144 0.4507,2.184 1.352,3.12c0.9013,0.9013 1.9933,1.352 3.276,1.352c1.2827,0 2.34,-0.468 3.172,-1.404c0.8667,-0.936 1.3,-1.9587 1.3,-3.068c0,-1.144 -0.416,-2.2013 -1.248,-3.172c-0.7973,-0.9707 -1.8893,-1.456 -3.276,-1.456c-1.352,0 -2.4613,0.4853 -3.328,1.456c-0.832,0.9707 -1.248,2.028 -1.248,3.172zm40.4926,-13.728c3.4666,0 6.344,1.3347 8.632,4.004c2.3226,2.6347 3.484,5.8587 3.484,9.672l0,9.152c0,0.7973 -0.0347,1.404 -0.104,1.82c-0.0347,0.3813 -0.1734,0.8147 -0.416,1.3c-0.4854,0.936 -1.8374,1.404 -4.056,1.404c-2.4614,0 -3.8827,-0.6413 -4.264,-1.924c-0.208,-0.5893 -0.312,-1.4733 -0.312,-2.652l0,-9.152c0,-1.4213 -0.416,-2.5307 -1.248,-3.328c-0.7974,-0.7973 -1.8894,-1.196 -3.276,-1.196c-1.352,0 -2.4614,0.416 -3.328,1.248c-0.832,0.832 -1.248,1.924 -1.248,3.276l0,9.204c0,0.7973 -0.0347,1.404 -0.104,1.82c-0.0347,0.3813 -0.1907,0.8147 -0.468,1.3c-0.4507,0.936 -1.7854,1.404 -4.004,1.404c-2.184,0 -3.5187,-0.468 -4.004,-1.404c-0.2427,-0.52 -0.3987,-0.9707 -0.468,-1.352c-0.0347,-0.416 -0.052,-1.0227 -0.052,-1.82l0,-18.408c0,-0.7627 0.0173,-1.3347 0.052,-1.716c0.0693,-0.416 0.2426,-0.8667 0.52,-1.352c0.4853,-0.8667 1.82,-1.3 4.004,-1.3c2.1146,0 3.4146,0.3987 3.9,1.196c0.3466,0.5893 0.52,1.3 0.52,2.132c0.1386,-0.2427 0.4506,-0.5893 0.936,-1.04c0.4853,-0.4507 0.9533,-0.8147 1.404,-1.092c1.1786,-0.7973 2.4786,-1.196 3.9,-1.196zm18.8991,4.576c0,-0.7973 0.0173,-1.3867 0.052,-1.768c0.0693,-0.416 0.2253,-0.884 0.468,-1.404c0.4853,-0.9013 1.8373,-1.352 4.056,-1.352c1.664,0 2.8427,0.2947 3.536,0.884c0.5893,0.4853 0.9013,1.2307 0.936,2.236c0.0347,0.3467 0.052,0.8493 0.052,1.508l0,18.2c0,0.7973 -0.0347,1.404 -0.104,1.82c-0.0347,0.3813 -0.1907,0.832 -0.468,1.352c-0.4507,0.9013 -1.7853,1.352 -4.004,1.352c-2.184,0 -3.5187,-0.468 -4.004,-1.404c-0.2427,-0.52 -0.3987,-0.9707 -0.468,-1.352c-0.0347,-0.3813 -0.052,-0.988 -0.052,-1.82l0,-18.252zm8.528,-9.62c-0.2427,0.4853 -0.6933,0.832 -1.352,1.04c-0.6587,0.208 -1.5427,0.312 -2.652,0.312c-1.0747,0 -1.9413,-0.104 -2.6,-0.312c-0.6587,-0.208 -1.1267,-0.572 -1.404,-1.092c-0.2427,-0.52 -0.3987,-0.9707 -0.468,-1.352c-0.0347,-0.416 -0.052,-1.0227 -0.052,-1.82c0,-0.7973 0.0173,-1.3867 0.052,-1.768c0.0693,-0.416 0.2253,-0.8667 0.468,-1.352c0.4853,-0.936 1.8373,-1.404 4.056,-1.404c2.184,0 3.5013,0.468 3.952,1.404c0.2773,0.52 0.4333,0.988 0.468,1.404c0.0693,0.3813 0.104,0.9707 0.104,1.768c0,0.7973 -0.0347,1.404 -0.104,1.82c-0.0347,0.3813 -0.1907,0.832 -0.468,1.352zm16.2699,8.684c1.6294,-2.4613 3.588,-3.692 5.8764,-3.692c3.536,0 6.17,1.508 7.904,4.524c0.381,-0.52 0.832,-1.0573 1.352,-1.612c0.554,-0.5893 1.421,-1.2133 2.6,-1.872c1.178,-0.6933 2.392,-1.04 3.64,-1.04c2.773,0 5.096,1.0747 6.968,3.224c1.872,2.1147 2.808,5.6333 2.808,10.556l0,9.1c0,0.7973 -0.035,1.404 -0.104,1.82c-0.035,0.3813 -0.191,0.832 -0.468,1.352c-0.451,0.936 -1.786,1.404 -4.004,1.404c-2.184,0 -3.519,-0.4853 -4.004,-1.456c-0.243,-0.52 -0.399,-0.9707 -0.468,-1.352c-0.035,-0.416 -0.052,-1.0227 -0.052,-1.82l0,-9.1c0,-3.016 -1.075,-4.524 -3.224,-4.524c-1.214,0 -2.046,0.3987 -2.496,1.196c-0.416,0.7973 -0.624,1.924 -0.624,3.38l0,9.1c0,0.832 -0.035,1.4387 -0.104,1.82c-0.035,0.3813 -0.191,0.832 -0.468,1.352c-0.486,0.936 -1.838,1.404 -4.056,1.404c-2.184,0 -3.519,-0.4853 -4.004,-1.456c-0.243,-0.52 -0.399,-0.9707 -0.468,-1.352c-0.035,-0.416 -0.052,-1.0227 -0.052,-1.82l0,-9.1c0,-3.016 -1.075,-4.524 -3.2244,-4.524c-2.08,0 -3.12,1.508 -3.12,4.524l0,9.204c0,0.7973 -0.0346,1.404 -0.104,1.82c-0.0346,0.3813 -0.1906,0.832 -0.468,1.352c-0.52,0.9013 -1.872,1.352 -4.056,1.352c-2.184,0 -3.5186,-0.468 -4.004,-1.404c-0.2426,-0.52 -0.3986,-0.9707 -0.468,-1.352c-0.0346,-0.3813 -0.052,-0.988 -0.052,-1.82l0,-18.304c0,-0.7973 0.0174,-1.3867 0.052,-1.768c0.0694,-0.416 0.2427,-0.8667 0.52,-1.352c0.52,-0.936 1.7507,-1.404 3.692,-1.404c1.9414,0 3.2067,0.312 3.796,0.936c0.5894,0.624 0.884,1.5253 0.884,2.704zm46.8304,0c1.629,-2.4613 3.588,-3.692 5.876,-3.692c3.536,0 6.171,1.508 7.904,4.524c0.381,-0.52 0.832,-1.0573 1.352,-1.612c0.555,-0.5893 1.421,-1.2133 2.6,-1.872c1.179,-0.6933 2.392,-1.04 3.64,-1.04c2.773,0 5.096,1.0747 6.968,3.224c1.872,2.1147 2.808,5.6333 2.808,10.556l0,9.1c0,0.7973 -0.035,1.404 -0.104,1.82c-0.035,0.3813 -0.191,0.832 -0.468,1.352c-0.451,0.936 -1.785,1.404 -4.004,1.404c-2.184,0 -3.519,-0.4853 -4.004,-1.456c-0.243,-0.52 -0.399,-0.9707 -0.468,-1.352c-0.035,-0.416 -0.052,-1.0227 -0.052,-1.82l0,-9.1c0,-3.016 -1.075,-4.524 -3.224,-4.524c-1.213,0 -2.045,0.3987 -2.496,1.196c-0.416,0.7973 -0.624,1.924 -0.624,3.38l0,9.1c0,0.832 -0.035,1.4387 -0.104,1.82c-0.035,0.3813 -0.191,0.832 -0.468,1.352c-0.485,0.936 -1.837,1.404 -4.056,1.404c-2.184,0 -3.519,-0.4853 -4.004,-1.456c-0.243,-0.52 -0.399,-0.9707 -0.468,-1.352c-0.035,-0.416 -0.052,-1.0227 -0.052,-1.82l0,-9.1c0,-3.016 -1.075,-4.524 -3.224,-4.524c-2.08,0 -3.12,1.508 -3.12,4.524l0,9.204c0,0.7973 -0.035,1.404 -0.104,1.82c-0.035,0.3813 -0.191,0.832 -0.468,1.352c-0.52,0.9013 -1.872,1.352 -4.056,1.352c-2.184,0 -3.519,-0.468 -4.004,-1.404c-0.243,-0.52 -0.399,-0.9707 -0.468,-1.352c-0.035,-0.3813 -0.052,-0.988 -0.052,-1.82l0,-18.304c0,-0.7973 0.017,-1.3867 0.052,-1.768c0.069,-0.416 0.243,-0.8667 0.52,-1.352c0.52,-0.936 1.751,-1.404 3.692,-1.404c1.941,0 3.207,0.312 3.796,0.936c0.589,0.624 0.884,1.5253 0.884,2.704zm64.303,6.812c0,2.1147 -0.538,3.692 -1.612,4.732c-1.04,1.0053 -2.202,1.508 -3.484,1.508l-12.324,0c0,0.9707 0.572,1.7853 1.716,2.444c1.144,0.6587 2.288,0.988 3.432,0.988c2.01,0 3.588,-0.208 4.732,-0.624l0.572,-0.208c0.832,-0.3813 1.525,-0.572 2.08,-0.572c1.109,0 2.062,0.78 2.86,2.34c0.45,0.936 0.676,1.7333 0.676,2.392c0,3.0853 -3.692,4.628 -11.076,4.628c-2.566,0 -4.854,-0.4333 -6.864,-1.3c-1.976,-0.9013 -3.519,-2.08 -4.628,-3.536c-2.184,-2.808 -3.276,-5.9453 -3.276,-9.412c0,-4.368 1.404,-7.852 4.212,-10.452c2.842,-2.6347 6.378,-3.952 10.608,-3.952c4.818,0 8.354,1.6987 10.608,5.096c1.178,1.8027 1.768,3.7787 1.768,5.928zm-10.972,1.508c1.317,0 1.976,-0.5547 1.976,-1.664c0,-0.7973 -0.312,-1.4387 -0.936,-1.924c-0.59,-0.4853 -1.456,-0.728 -2.6,-0.728c-1.11,0 -2.219,0.468 -3.328,1.404c-1.11,0.9013 -1.664,1.872 -1.664,2.912l6.552,0zm32.2,-11.96c3.467,0 6.344,1.3347 8.632,4.004c2.323,2.6347 3.484,5.8587 3.484,9.672l0,9.152c0,0.7973 -0.035,1.404 -0.104,1.82c-0.035,0.3813 -0.173,0.8147 -0.416,1.3c-0.485,0.936 -1.837,1.404 -4.056,1.404c-2.461,0 -3.883,-0.6413 -4.264,-1.924c-0.208,-0.5893 -0.312,-1.4733 -0.312,-2.652l0,-9.152c0,-1.4213 -0.416,-2.5307 -1.248,-3.328c-0.797,-0.7973 -1.889,-1.196 -3.276,-1.196c-1.352,0 -2.461,0.416 -3.328,1.248c-0.832,0.832 -1.248,1.924 -1.248,3.276l0,9.204c0,0.7973 -0.035,1.404 -0.104,1.82c-0.035,0.3813 -0.191,0.8147 -0.468,1.3c-0.451,0.936 -1.785,1.404 -4.004,1.404c-2.184,0 -3.519,-0.468 -4.004,-1.404c-0.243,-0.52 -0.399,-0.9707 -0.468,-1.352c-0.035,-0.416 -0.052,-1.0227 -0.052,-1.82l0,-18.408c0,-0.7627 0.017,-1.3347 0.052,-1.716c0.069,-0.416 0.243,-0.8667 0.52,-1.352c0.485,-0.8667 1.82,-1.3 4.004,-1.3c2.115,0 3.415,0.3987 3.9,1.196c0.347,0.5893 0.52,1.3 0.52,2.132c0.139,-0.2427 0.451,-0.5893 0.936,-1.04c0.485,-0.4507 0.953,-0.8147 1.404,-1.092c1.179,-0.7973 2.479,-1.196 3.9,-1.196zm37.255,-11.388c0.278,-0.52 0.746,-0.884 1.404,-1.092c0.659,-0.208 1.526,-0.312 2.6,-0.312c1.11,0 1.994,0.104 2.652,0.312c0.659,0.208 1.11,0.572 1.352,1.092c0.278,0.52 0.434,0.988 0.468,1.404c0.07,0.3813 0.104,0.9707 0.104,1.768l0,31.044c0,0.7973 -0.034,1.404 -0.104,1.82c-0.034,0.3813 -0.19,0.8147 -0.468,1.3c-0.52,0.936 -1.993,1.404 -4.42,1.404c-2.392,0 -3.726,-0.8493 -4.004,-2.548c-1.456,1.664 -3.484,2.496 -6.084,2.496c-3.12,0 -5.962,-1.352 -8.528,-4.056c-2.565,-2.7387 -3.848,-5.9107 -3.848,-9.516c0,-3.64 1.283,-6.8293 3.848,-9.568c2.6,-2.7387 5.443,-4.108 8.528,-4.108c2.566,0 4.559,0.8667 5.98,2.6l0,-10.92c0,-0.7973 0.018,-1.3867 0.052,-1.768c0.07,-0.416 0.226,-0.8667 0.468,-1.352zm-8.424,28.236c0.902,0.936 1.994,1.404 3.276,1.404c1.283,0 2.34,-0.468 3.172,-1.404c0.867,-0.936 1.3,-1.9587 1.3,-3.068c0,-1.144 -0.416,-2.2013 -1.248,-3.172c-0.797,-0.9707 -1.889,-1.456 -3.276,-1.456c-1.386,0 -2.496,0.4853 -3.328,1.456c-0.832,0.936 -1.248,1.976 -1.248,3.12c0,1.144 0.451,2.184 1.352,3.12zm41.53,-13.936c0.208,-1.9413 1.578,-2.912 4.108,-2.912c1.352,0 2.358,0.104 3.016,0.312c0.659,0.208 1.11,0.572 1.352,1.092c0.278,0.52 0.434,0.988 0.468,1.404c0.07,0.3813 0.104,0.9707 0.104,1.768l0,18.2c0,0.7973 -0.034,1.404 -0.104,1.82c-0.034,0.3813 -0.173,0.832 -0.416,1.352c-0.485,0.9013 -1.681,1.352 -3.588,1.352c-1.872,0 -3.137,-0.2253 -3.796,-0.676c-0.624,-0.4853 -0.988,-1.1787 -1.092,-2.08c-1.282,1.8373 -3.432,2.756 -6.448,2.756c-2.981,0 -5.754,-1.3693 -8.32,-4.108c-2.565,-2.7387 -3.848,-5.9107 -3.848,-9.516c0,-3.64 1.283,-6.812 3.848,-9.516c2.6,-2.7387 5.443,-4.108 8.528,-4.108c1.179,0 2.254,0.208 3.224,0.624c0.971,0.416 1.647,0.8147 2.028,1.196c0.382,0.3467 0.694,0.6933 0.936,1.04zm-9.464,10.816c0,1.144 0.451,2.184 1.352,3.12c0.902,0.9013 1.994,1.352 3.276,1.352c1.283,0 2.34,-0.468 3.172,-1.404c0.867,-0.936 1.3,-1.9587 1.3,-3.068c0,-1.144 -0.416,-2.2013 -1.248,-3.172c-0.797,-0.9707 -1.889,-1.456 -3.276,-1.456c-1.352,0 -2.461,0.4853 -3.328,1.456c-0.832,0.9707 -1.248,2.028 -1.248,3.172zm41.169,-4.524l-3.38,-0.208l0,7.176c0,0.936 0.139,1.612 0.416,2.028c0.312,0.416 0.867,0.624 1.664,0.624c0.832,0 1.456,0.0347 1.872,0.104c0.451,0.0347 0.919,0.1907 1.404,0.468c0.797,0.4507 1.196,1.612 1.196,3.484c0,2.184 -0.485,3.5187 -1.456,4.004c-0.52,0.2427 -0.988,0.3987 -1.404,0.468c-0.381,0.0347 -0.953,0.052 -1.716,0.052c-3.605,0 -6.344,-0.8147 -8.216,-2.444c-1.872,-1.6293 -2.808,-4.3853 -2.808,-8.268l0,-7.696c-0.659,0.104 -1.369,0.156 -2.132,0.156c-0.763,0 -1.404,-0.2947 -1.924,-0.884c-0.485,-0.5893 -0.728,-1.5947 -0.728,-3.016c0,-1.4213 0.087,-2.444 0.26,-3.068c0.173,-0.6587 0.416,-1.1267 0.728,-1.404c0.555,-0.4507 1.248,-0.676 2.08,-0.676l1.716,0.208l0,-5.356c0,-0.7973 0.017,-1.3867 0.052,-1.768c0.069,-0.3813 0.243,-0.7973 0.52,-1.248c0.451,-0.8667 1.785,-1.3 4.004,-1.3c2.357,0 3.761,0.6413 4.212,1.924c0.173,0.5547 0.26,1.4387 0.26,2.652l0,5.096c1.525,-0.1387 2.669,-0.208 3.432,-0.208c0.797,0 1.387,0.0347 1.768,0.104c0.416,0.0347 0.884,0.1907 1.404,0.468c0.901,0.4507 1.352,1.7853 1.352,4.004c0,2.184 -0.468,3.5187 -1.404,4.004c-0.52,0.2427 -0.988,0.3987 -1.404,0.468c-0.381,0.0347 -0.971,0.052 -1.768,0.052zm10.047,-4.628c0,-0.7973 0.018,-1.3867 0.052,-1.768c0.07,-0.416 0.226,-0.884 0.468,-1.404c0.486,-0.9013 1.838,-1.352 4.056,-1.352c1.664,0 2.843,0.2947 3.536,0.884c0.59,0.4853 0.902,1.2307 0.936,2.236c0.035,0.3467 0.052,0.8493 0.052,1.508l0,18.2c0,0.7973 -0.034,1.404 -0.104,1.82c-0.034,0.3813 -0.19,0.832 -0.468,1.352c-0.45,0.9013 -1.785,1.352 -4.004,1.352c-2.184,0 -3.518,-0.468 -4.004,-1.404c-0.242,-0.52 -0.398,-0.9707 -0.468,-1.352c-0.034,-0.3813 -0.052,-0.988 -0.052,-1.82l0,-18.252zm8.528,-9.62c-0.242,0.4853 -0.693,0.832 -1.352,1.04c-0.658,0.208 -1.542,0.312 -2.652,0.312c-1.074,0 -1.941,-0.104 -2.6,-0.312c-0.658,-0.208 -1.126,-0.572 -1.404,-1.092c-0.242,-0.52 -0.398,-0.9707 -0.468,-1.352c-0.034,-0.416 -0.052,-1.0227 -0.052,-1.82c0,-0.7973 0.018,-1.3867 0.052,-1.768c0.07,-0.416 0.226,-0.8667 0.468,-1.352c0.486,-0.936 1.838,-1.404 4.056,-1.404c2.184,0 3.502,0.468 3.952,1.404c0.278,0.52 0.434,0.988 0.468,1.404c0.07,0.3813 0.104,0.9707 0.104,1.768c0,0.7973 -0.034,1.404 -0.104,1.82c-0.034,0.3813 -0.19,0.832 -0.468,1.352zm6.546,18.772c0,-4.16 1.456,-7.592 4.368,-10.296c2.912,-2.704 6.24,-4.056 9.984,-4.056c3.744,0 7.055,1.352 9.932,4.056c2.878,2.6693 4.316,6.084 4.316,10.244c0,2.8773 -0.745,5.4427 -2.236,7.696c-1.49,2.2187 -3.31,3.8653 -5.46,4.94c-2.114,1.04 -4.316,1.56 -6.604,1.56c-2.288,0 -4.506,-0.5547 -6.656,-1.664c-2.149,-1.144 -3.969,-2.808 -5.46,-4.992c-1.456,-2.2187 -2.184,-4.7147 -2.184,-7.488zm10.868,3.744c1.11,0.832 2.236,1.248 3.38,1.248c1.144,0 2.288,-0.4333 3.432,-1.3c1.144,-0.8667 1.716,-2.1493 1.716,-3.848c0,-1.6987 -0.537,-2.964 -1.612,-3.796c-1.074,-0.832 -2.236,-1.248 -3.484,-1.248c-1.248,0 -2.409,0.4333 -3.484,1.3c-1.074,0.8667 -1.612,2.1493 -1.612,3.848c0,1.664 0.555,2.9293 1.664,3.796zm38.928,-17.472c3.467,0 6.344,1.3347 8.632,4.004c2.323,2.6347 3.484,5.8587 3.484,9.672l0,9.152c0,0.7973 -0.035,1.404 -0.104,1.82c-0.035,0.3813 -0.173,0.8147 -0.416,1.3c-0.485,0.936 -1.837,1.404 -4.056,1.404c-2.461,0 -3.883,-0.6413 -4.264,-1.924c-0.208,-0.5893 -0.312,-1.4733 -0.312,-2.652l0,-9.152c0,-1.4213 -0.416,-2.5307 -1.248,-3.328c-0.797,-0.7973 -1.889,-1.196 -3.276,-1.196c-1.352,0 -2.461,0.416 -3.328,1.248c-0.832,0.832 -1.248,1.924 -1.248,3.276l0,9.204c0,0.7973 -0.035,1.404 -0.104,1.82c-0.035,0.3813 -0.191,0.8147 -0.468,1.3c-0.451,0.936 -1.785,1.404 -4.004,1.404c-2.184,0 -3.519,-0.468 -4.004,-1.404c-0.243,-0.52 -0.399,-0.9707 -0.468,-1.352c-0.035,-0.416 -0.052,-1.0227 -0.052,-1.82l0,-18.408c0,-0.7627 0.017,-1.3347 0.052,-1.716c0.069,-0.416 0.243,-0.8667 0.52,-1.352c0.485,-0.8667 1.82,-1.3 4.004,-1.3c2.115,0 3.415,0.3987 3.9,1.196c0.347,0.5893 0.52,1.3 0.52,2.132c0.139,-0.2427 0.451,-0.5893 0.936,-1.04c0.485,-0.4507 0.953,-0.8147 1.404,-1.092c1.179,-0.7973 2.479,-1.196 3.9,-1.196z"
      fill="#38bdf8" id="svg_3" />
  </g>

</svg>