<svg version="1.1" xmlns="http://www.w3.org/2000/svg" xmlns:xlink="http://www.w3.org/1999/xlink" width="48px"
  height="48px" viewBox="0,0,256,256">
  <g fill="none" fill-rule="nonzero" stroke="none" stroke-width="1" stroke-linecap="butt" stroke-linejoin="miter"
    stroke-miterlimit="10" stroke-dasharray="" stroke-dashoffset="0" font-family="none" font-weight="none"
    font-size="none" text-anchor="none" style="mix-blend-mode: normal">
    <g transform="scale(5.33333,5.33333)">
      <path
        d="M24,4c-11.077,0 -20,8.923 -20,20c0,11.077 8.923,20 20,20c11.077,0 20,-8.923 20,-20c0,-11.077 -8.923,-20 -20,-20z"
        fill="#323232"></path>
      <path
        d="M24,6c-9.969,0 -18,8.031 -18,18c0,9.969 8.031,18 18,18c9.969,0 18,-8.031 18,-18c0,-9.969 -8.031,-18 -18,-18z"
        fill="#fb923c"></path>
      <path
        d="M24,36c-6.617,0 -12,-5.383 -12,-12c0,-6.617 5.383,-12 12,-12c6.617,0 12,5.383 12,12c0,6.617 -5.383,12 -12,12zM24,14c-5.514,0 -10,4.486 -10,10c0,5.514 4.486,10 10,10c5.514,0 10,-4.486 10,-10c0,-5.514 -4.486,-10 -10,-10z"
        fill="#e46905"></path>
      <circle cx="24" cy="24" r="4" fill="#323232"></circle>
      <path
        d="M25.697,10.528c1.057,-0.519 2.499,-0.528 3.303,-0.528c-4.638,-2.908 -8,0 -8,3c0,1.657 1.343,3 3,3c1.657,0 3,-1.343 3,-3c0,-1.026 -0.517,-1.931 -1.303,-2.472z"
        fill="#323232"></path>
      <path
        d="M35.71,26.493l-0.005,0.042c-0.485,-0.336 -1.071,-0.535 -1.705,-0.535c-1.657,0 -3,1.343 -3,3c0,1.657 1.343,3 3,3c0.399,0 0.778,-0.082 1.127,-0.223c-0.165,1.164 -0.962,2.36 -1.411,3.024c5.006,-2.214 4.479,-6.628 1.994,-8.308z"
        fill="#323232"></path>
      <path
        d="M17,29c0,-1.657 -1.343,-3 -3,-3c-1.321,0 -2.429,0.859 -2.83,2.044c-0.791,-0.873 -1.198,-2.257 -1.42,-3.03c-1.454,5.05 1.916,7.481 4.739,6.936c0.085,-0.014 0.168,-0.032 0.25,-0.053c0.034,-0.009 0.069,-0.012 0.102,-0.022l-0.007,-0.008c1.248,-0.363 2.166,-1.502 2.166,-2.867z"
        fill="#323232"></path>
    </g>
  </g>
</svg>